<svg width="39" height="62" viewBox="0 0 39 62" fill="none" xmlns="http://www.w3.org/2000/svg">
<path d="M37.9863 18.9223C37.8348 13.9252 35.6392 9.23105 32.0049 5.82398C28.5222 2.56833 23.9794 0.751221 19.2095 0.751221C19.1338 0.751221 18.9823 0.751221 18.9066 0.751221C18.7552 0.751221 18.6795 0.751221 18.5281 0.751221C8.45826 1.12978 0.508423 9.45819 0.508423 19.528C0.508423 23.7679 1.94697 27.9321 4.59691 31.2635C5.27833 32.0963 5.88403 33.0049 6.41402 33.9134L6.64116 34.292C8.45827 37.3205 9.59396 40.6519 10.1239 44.0589C10.3511 45.8003 10.9568 47.466 11.8653 48.9045C11.9411 48.9803 11.9411 48.9803 12.0168 49.056C12.0168 49.1317 12.0168 49.1317 12.0168 49.2074V56.5515C12.0168 57.8387 13.0767 58.8986 14.3639 58.8986H15.4996V59.3529C15.4996 60.4886 16.4081 61.3972 17.5438 61.3972H20.7237C21.8594 61.3972 22.768 60.4886 22.768 59.3529V58.8986H24.2822C25.3422 58.8986 26.1751 58.0658 26.1751 57.0058V49.1317C26.1751 49.056 26.1751 49.056 26.1751 48.9803C26.705 48.4503 27.0836 47.8446 27.3865 47.1632C27.9922 45.8003 28.4464 44.3618 28.5979 42.8475C28.9007 40.1976 29.8093 37.6233 31.1721 35.352C31.3235 35.1248 31.475 34.8977 31.5507 34.6706C32.3078 33.5349 33.0649 32.3992 33.9735 31.2635C34.4278 30.7335 34.8063 30.1278 35.1092 29.5978C35.1849 29.5221 35.1849 29.4464 35.2606 29.2949C35.3363 29.2192 35.412 29.0678 35.412 28.9921C37.3048 25.8879 38.1377 22.4808 37.9863 18.9223ZM21.4809 59.2772C21.4809 59.6558 21.178 59.9586 20.7994 59.9586H17.6195C17.2409 59.9586 16.9381 59.6558 16.9381 59.2772V58.8229H21.5566L21.4809 59.2772ZM24.9637 56.9301C24.9637 57.233 24.7365 57.4601 24.4337 57.4601H14.4396C13.9096 57.4601 13.4553 57.0058 13.4553 56.4758V54.2802H24.9637V56.9301ZM24.9637 52.9173H13.4553V49.8131H24.9637V52.9173ZM32.9892 30.4306C32.0807 31.5663 31.2478 32.702 30.4907 33.9134C30.3393 34.1406 30.1878 34.3677 30.1121 34.5948C28.6736 37.0934 27.765 39.819 27.3865 42.6204C27.0079 45.4975 26.0993 47.0117 25.4936 47.7689C25.3422 47.996 25.1151 48.2231 24.8879 48.3746H22.0109L22.768 39.7433L25.7208 35.1248C25.9479 34.822 25.8722 34.3677 25.4936 34.1406C25.1908 33.9134 24.7365 33.9891 24.5851 34.3677L21.5566 39.1376C21.4809 39.2133 21.4809 39.3647 21.4809 39.4405L20.7237 48.3746H17.9224L17.1652 39.4405C17.1652 39.3647 17.0895 39.2133 17.0895 39.1376L14.061 34.3677C13.8339 34.0648 13.4553 33.9891 13.0767 34.1406C12.7739 34.3677 12.6982 34.7463 12.8496 35.1248L15.8024 39.7433L16.5595 48.3746H13.6067C13.2282 48.0717 11.7896 46.8603 11.1839 43.1504C10.6539 39.7433 9.44253 36.4119 7.70114 33.3834L7.474 33.0049C6.94401 32.0963 6.26259 31.1878 5.65689 30.3549C3.23408 27.2507 1.87125 23.3893 1.87125 19.4523C1.87125 10.0639 9.21539 2.34119 18.6038 2.03834C23.2223 1.88691 27.765 3.55259 31.1721 6.73253C34.5792 9.83675 36.5477 14.2281 36.6991 18.9223C36.7748 23.0865 35.4877 27.0993 32.9892 30.4306Z" fill="#2ACCB5"/>
</svg>
