<svg width="79" height="81" viewBox="0 0 79 81" fill="none" xmlns="http://www.w3.org/2000/svg">
<path d="M57.6637 38.7105C57.5134 33.7495 55.3336 29.0892 51.7256 25.7068C48.268 22.4746 43.758 20.6707 39.0226 20.6707C38.9474 20.6707 38.7971 20.6707 38.7219 20.6707C38.5716 20.6707 38.4964 20.6707 38.3461 20.6707C28.349 21.0465 20.4566 29.2396 20.4566 39.2367C20.4566 43.446 21.8847 47.5801 24.5155 50.8874C25.192 51.7142 25.7934 52.6162 26.3195 53.5182L26.545 53.894C28.349 56.9007 29.4765 60.208 30.0027 63.5904C30.2282 65.3193 30.8295 66.9729 31.7315 68.4011C31.8066 68.4762 31.8066 68.4762 31.8818 68.5514C31.8818 68.6266 31.8818 68.6266 31.8818 68.7017V75.9928C31.8818 77.2706 32.9341 78.323 34.2119 78.323H35.3394V78.774C35.3394 79.9015 36.2414 80.8035 37.3689 80.8035H40.6011C41.7285 80.8035 42.6305 79.9015 42.6305 78.774V78.323H44.1339C45.1862 78.323 46.013 77.4961 46.013 76.4438V68.6266C46.013 68.5514 46.013 68.5514 46.013 68.4762C46.5392 67.9501 46.915 67.3487 47.2157 66.6722C47.817 65.3193 48.268 63.8911 48.4183 62.3878C48.719 59.757 49.621 57.2013 50.974 54.9464C51.1243 54.7209 51.2746 54.4953 51.3498 54.2699C52.1015 53.1424 52.8531 52.0149 53.7551 50.8874C54.2061 50.3612 54.5819 49.7599 54.8826 49.2337C54.9578 49.1586 54.9578 49.0834 55.0329 48.9331C55.1081 48.8579 55.1833 48.7076 55.1833 48.6324C56.9872 45.5506 57.8141 42.1681 57.6637 38.7105ZM41.2776 78.6988C41.2776 79.0746 40.9769 79.3753 40.6011 79.3753H37.4441C37.0683 79.3753 36.7676 79.0746 36.7676 78.6988V78.2478H41.3527L41.2776 78.6988ZM44.7352 76.3687C44.7352 76.6693 44.5097 76.8948 44.209 76.8948H34.2871C33.761 76.8948 33.31 76.4438 33.31 75.9177V73.7379H44.7352V76.3687ZM44.7352 72.3849H33.31V69.3031H44.7352V72.3849ZM52.7028 50.0606C51.8008 51.188 50.974 52.3155 50.2223 53.5182C50.072 53.7437 49.9216 53.9692 49.8465 54.1947C48.4183 56.6752 47.5163 59.3811 47.1405 62.1623C46.7647 65.0186 45.9378 66.5219 45.2613 67.2736C45.111 67.4991 44.8855 67.7246 44.66 67.8749H41.8037L42.5554 59.306L45.4868 54.7209C45.7123 54.4202 45.6372 53.9692 45.2613 53.7437C44.9607 53.5182 44.5097 53.5934 44.3594 53.9692L41.3527 58.7046C41.2775 58.7798 41.2776 58.9301 41.2776 59.0053L40.5259 67.8749H37.8199L37.0683 59.0053C37.0683 58.9301 36.9931 58.7798 36.9931 58.7046L33.9865 53.9692C33.761 53.6685 33.3851 53.5934 33.0093 53.7437C32.7086 53.9692 32.6335 54.345 32.7838 54.7209L35.7153 59.306L36.4669 67.8749H33.5355C33.1596 67.5742 31.7315 66.3716 31.1301 62.6884C30.604 59.306 29.4013 55.9987 27.6725 52.992L27.447 52.6162C26.9208 51.7142 26.2444 50.8122 25.643 49.9854C23.2377 46.9036 21.8847 43.0701 21.8847 39.1615C21.8847 29.8409 29.1758 22.174 38.4964 21.8733C43.0815 21.723 47.5915 23.3766 50.974 26.5336C54.3564 29.6154 56.3107 33.975 56.4611 38.6353C56.4611 42.7695 55.1833 46.8284 52.7028 50.0606Z" fill="#F04E51"/>
<path d="M17.375 54.1945L6.77655 60.9595C6.47588 61.185 6.02489 61.1098 5.79939 60.734C5.57389 60.4333 5.64906 59.9823 6.02489 59.7568L16.6233 52.9919C16.924 52.7664 17.375 52.8416 17.6005 53.2174C17.826 53.5181 17.6756 53.9691 17.375 54.1945Z" fill="#F04E51"/>
<path d="M13.2408 44.1225L0.838422 45.9264C0.462591 46.0016 0.0867612 45.7009 0.0115952 45.3251C-0.0635708 44.9493 0.237093 44.5735 0.612923 44.4983L13.0153 42.6191C13.3911 42.544 13.767 42.8446 13.8421 43.2205C13.9173 43.6715 13.6166 44.0473 13.2408 44.1225Z" fill="#F04E51"/>
<path d="M13.6166 33.1482L1.51487 29.8409C1.13904 29.7657 0.91354 29.3147 0.988706 28.9389C1.13904 28.5631 1.51487 28.3376 1.8907 28.4879L13.9924 31.7952C14.3683 31.8704 14.5938 32.3214 14.5186 32.6972C14.3683 33.073 13.9924 33.2985 13.6166 33.1482Z" fill="#F04E51"/>
<path d="M18.3522 23.3765L8.65576 15.4089C8.3551 15.1834 8.27993 14.7324 8.58059 14.4318C8.80609 14.1311 9.25709 14.0559 9.55775 14.3566L19.2542 22.3242C19.5548 22.5497 19.63 23.0007 19.3293 23.3013C19.1038 23.602 18.6528 23.602 18.3522 23.3765Z" fill="#F04E51"/>
<path d="M26.6954 16.3111L21.1331 5.11133C20.9828 4.7355 21.1331 4.35967 21.4338 4.13417C21.8096 3.98384 22.1855 4.13417 22.411 4.43484L28.0484 15.6346C28.1987 16.0104 28.0484 16.3862 27.7477 16.6117C27.2967 16.8372 26.9209 16.6869 26.6954 16.3111Z" fill="#F04E51"/>
<path d="M37.2188 13.3044L36.6175 0.75166C36.6175 0.37583 36.9182 0 37.294 0C37.6698 0 38.0456 0.300664 38.0456 0.676494L38.5718 13.2292C38.5718 13.605 38.2711 13.9809 37.8953 13.9809C37.5195 13.9809 37.2188 13.6802 37.2188 13.3044Z" fill="#F04E51"/>
<path d="M48.0428 14.8078L52.6279 3.08188C52.7783 2.70605 53.1541 2.55571 53.5299 2.70605C53.9058 2.85638 54.0561 3.23221 53.9058 3.60804L49.3206 15.3339C49.1703 15.7098 48.7945 15.8601 48.4186 15.7098C48.0428 15.5594 47.8925 15.1836 48.0428 14.8078Z" fill="#F04E51"/>
<path d="M57.2879 20.5203L66.2327 11.7259C66.5334 11.4252 66.9844 11.4252 67.285 11.7259C67.5857 12.0266 67.5857 12.4776 67.285 12.7782L58.2651 21.5726C57.9644 21.8733 57.5134 21.8733 57.2128 21.5726C56.9873 21.272 56.9873 20.821 57.2879 20.5203Z" fill="#F04E51"/>
<path d="M63.3765 29.6153L75.1024 25.1805C75.4782 25.0302 75.854 25.2557 76.0044 25.6315C76.1547 26.0074 75.9292 26.3832 75.5534 26.5335L63.9027 30.9683C63.5268 31.1187 63.151 30.8932 63.0007 30.5173C62.8503 30.1415 63.0007 29.6905 63.3765 29.6153Z" fill="#F04E51"/>
<path d="M65.3307 40.364L77.8834 41.1157C78.2593 41.1157 78.5599 41.4915 78.5599 41.8673C78.5599 42.2432 78.1841 42.5438 77.8083 42.5438L65.2555 41.7922C64.8797 41.7922 64.579 41.4163 64.579 41.0405C64.579 40.5895 64.9549 40.2889 65.3307 40.364Z" fill="#F04E51"/>
<path d="M62.7 50.9626L73.8245 56.7504C74.2004 56.9007 74.3507 57.3517 74.1252 57.7276C73.9749 58.1034 73.5239 58.2537 73.148 58.0282L62.0235 52.2404C61.6476 52.0901 61.4973 51.6391 61.7228 51.2633C61.9483 50.8874 62.3241 50.7371 62.7 50.9626Z" fill="#F04E51"/>
</svg>
