<svg width="63" height="73" viewBox="0 0 63 73" fill="none" xmlns="http://www.w3.org/2000/svg">
<path d="M49.9862 29.9223C49.8348 24.9252 47.6391 20.2311 44.0049 16.824C40.5221 13.5683 35.9794 11.7512 31.2095 11.7512C31.1337 11.7512 30.9823 11.7512 30.9066 11.7512C30.7552 11.7512 30.6795 11.7512 30.528 11.7512C20.4582 12.1298 12.5084 20.4582 12.5084 30.528C12.5084 34.7679 13.9469 38.9321 16.5969 42.2635C17.2783 43.0963 17.884 44.0049 18.414 44.9134L18.6411 45.292C20.4582 48.3205 21.5939 51.6519 22.1239 55.0589C22.3511 56.8003 22.9568 58.466 23.8653 59.9045C23.941 59.9803 23.941 59.9803 24.0167 60.056C24.0167 60.1317 24.0167 60.1317 24.0167 60.2074V67.5515C24.0167 68.8387 25.0767 69.8986 26.3638 69.8986H27.4995V70.3529C27.4995 71.4886 28.4081 72.3972 29.5438 72.3972H32.7237C33.8594 72.3972 34.768 71.4886 34.768 70.3529V69.8986H36.2822C37.3422 69.8986 38.175 69.0658 38.175 68.0058V60.1317C38.175 60.056 38.175 60.056 38.175 59.9803C38.705 59.4503 39.0836 58.8446 39.3864 58.1632C39.9921 56.8003 40.4464 55.3618 40.5978 53.8475C40.9007 51.1976 41.8092 48.6233 43.1721 46.352C43.3235 46.1248 43.4749 45.8977 43.5506 45.6706C44.3078 44.5349 45.0649 43.3992 45.9734 42.2635C46.4277 41.7335 46.8063 41.1278 47.1091 40.5978C47.1848 40.5221 47.1848 40.4464 47.2606 40.2949C47.3363 40.2192 47.412 40.0678 47.412 39.9921C49.3048 36.8879 50.1376 33.4808 49.9862 29.9223ZM33.4808 70.2772C33.4808 70.6558 33.178 70.9586 32.7994 70.9586H29.6195C29.2409 70.9586 28.9381 70.6558 28.9381 70.2772V69.8229H33.5565L33.4808 70.2772ZM36.9636 67.9301C36.9636 68.233 36.7365 68.4601 36.4336 68.4601H26.4395C25.9096 68.4601 25.4553 68.0058 25.4553 67.4758V65.2802H36.9636V67.9301ZM36.9636 63.9173H25.4553V60.8131H36.9636V63.9173ZM44.9892 41.4306C44.0806 42.5663 43.2478 43.702 42.4907 44.9134C42.3392 45.1406 42.1878 45.3677 42.1121 45.5948C40.6735 48.0934 39.765 50.819 39.3864 53.6204C39.0079 56.4975 38.0993 58.0117 37.4936 58.7689C37.3422 58.996 37.115 59.2231 36.8879 59.3746H34.0108L34.768 50.7433L37.7208 46.1248C37.9479 45.822 37.8722 45.3677 37.4936 45.1406C37.1908 44.9134 36.7365 44.9891 36.5851 45.3677L33.5565 50.1376C33.4808 50.2133 33.4808 50.3647 33.4808 50.4405L32.7237 59.3746H29.9223L29.1652 50.4405C29.1652 50.3647 29.0895 50.2133 29.0895 50.1376L26.061 45.3677C25.8338 45.0648 25.4553 44.9891 25.0767 45.1406C24.7739 45.3677 24.6982 45.7463 24.8496 46.1248L27.8024 50.7433L28.5595 59.3746H25.6067C25.2281 59.0717 23.7896 57.8603 23.1839 54.1504C22.6539 50.7433 21.4425 47.4119 19.7011 44.3834L19.474 44.0049C18.944 43.0963 18.2626 42.1878 17.6569 41.3549C15.2341 38.2507 13.8712 34.3893 13.8712 30.4523C13.8712 21.0639 21.2154 13.3412 30.6038 13.0383C35.2222 12.8869 39.765 14.5526 43.1721 17.7325C46.5791 20.8368 48.5477 25.2281 48.6991 29.9223C48.7748 34.0865 47.4877 38.0993 44.9892 41.4306Z" fill="#F1E76C"/>
<path d="M3.95279 43.5506L9.70696 40.7493" stroke="#F1E76C" stroke-width="1.7" stroke-miterlimit="10" stroke-linecap="round"/>
<path d="M1 30.528H7.43559" stroke="#F1E76C" stroke-width="1.7" stroke-miterlimit="10" stroke-linecap="round"/>
<path d="M4.02847 17.5054L9.78264 20.3068" stroke="#F1E76C" stroke-width="1.7" stroke-miterlimit="10" stroke-linecap="round"/>
<path d="M12.2812 7.05707L16.294 12.0541" stroke="#F1E76C" stroke-width="1.7" stroke-miterlimit="10" stroke-linecap="round"/>
<path d="M24.2438 1.15149L25.7581 7.43565" stroke="#F1E76C" stroke-width="1.7" stroke-miterlimit="10" stroke-linecap="round"/>
<path d="M37.5693 1L36.2064 7.28416" stroke="#F1E76C" stroke-width="1.7" stroke-miterlimit="10" stroke-linecap="round"/>
<path d="M49.6833 6.60278L45.7462 11.6755" stroke="#F1E76C" stroke-width="1.7" stroke-miterlimit="10" stroke-linecap="round"/>
<path d="M58.1632 16.824L52.4847 19.7768" stroke="#F1E76C" stroke-width="1.7" stroke-miterlimit="10" stroke-linecap="round"/>
<path d="M61.4945 29.6951L55.0589 29.9223" stroke="#F1E76C" stroke-width="1.7" stroke-miterlimit="10" stroke-linecap="round"/>
<path d="M58.9203 42.7934L53.0904 40.2192" stroke="#F1E76C" stroke-width="1.7" stroke-miterlimit="10" stroke-linecap="round"/>
</svg>
